<svg width="391" height="113" viewBox="0 0 391 113" fill="none" xmlns="http://www.w3.org/2000/svg">
<path d="M100.618 74.8182C96.4182 74.8182 92.7909 73.9455 89.7364 72.2C86.7 70.4364 84.3636 67.9455 82.7273 64.7273C81.0909 61.4909 80.2727 57.6818 80.2727 53.3C80.2727 48.9909 81.0909 45.2091 82.7273 41.9545C84.3818 38.6818 86.6909 36.1364 89.6545 34.3182C92.6182 32.4818 96.1 31.5636 100.1 31.5636C102.682 31.5636 105.118 31.9818 107.409 32.8182C109.718 33.6364 111.755 34.9091 113.518 36.6364C115.3 38.3636 116.7 40.5636 117.718 43.2364C118.736 45.8909 119.245 49.0545 119.245 52.7273V55.7545H84.9091V49.1H109.782C109.764 47.2091 109.355 45.5273 108.555 44.0545C107.755 42.5636 106.636 41.3909 105.2 40.5364C103.782 39.6818 102.127 39.2545 100.236 39.2545C98.2182 39.2545 96.4455 39.7455 94.9182 40.7273C93.3909 41.6909 92.2 42.9636 91.3455 44.5455C90.5091 46.1091 90.0818 47.8273 90.0636 49.7V55.5091C90.0636 57.9455 90.5091 60.0364 91.4 61.7818C92.2909 63.5091 93.5364 64.8364 95.1364 65.7636C96.7364 66.6727 98.6091 67.1273 100.755 67.1273C102.191 67.1273 103.491 66.9273 104.655 66.5273C105.818 66.1091 106.827 65.5 107.682 64.7C108.536 63.9 109.182 62.9091 109.618 61.7273L118.836 62.7636C118.255 65.2 117.145 67.3273 115.509 69.1455C113.891 70.9455 111.818 72.3455 109.291 73.3455C106.764 74.3273 103.873 74.8182 100.618 74.8182ZM137.348 74.8455C134.694 74.8455 132.303 74.3727 130.176 73.4273C128.066 72.4636 126.394 71.0455 125.157 69.1727C123.939 67.3 123.33 64.9909 123.33 62.2455C123.33 59.8818 123.766 57.9273 124.639 56.3818C125.512 54.8364 126.703 53.6 128.212 52.6727C129.721 51.7455 131.421 51.0455 133.312 50.5727C135.221 50.0818 137.194 49.7273 139.23 49.5091C141.685 49.2545 143.676 49.0273 145.203 48.8273C146.73 48.6091 147.839 48.2818 148.53 47.8455C149.239 47.3909 149.594 46.6909 149.594 45.7455V45.5818C149.594 43.5273 148.985 41.9364 147.766 40.8091C146.548 39.6818 144.794 39.1182 142.503 39.1182C140.085 39.1182 138.166 39.6455 136.748 40.7C135.348 41.7545 134.403 43 133.912 44.4364L124.694 43.1273C125.421 40.5818 126.621 38.4545 128.294 36.7455C129.966 35.0182 132.012 33.7273 134.43 32.8727C136.848 32 139.521 31.5636 142.448 31.5636C144.466 31.5636 146.476 31.8 148.476 32.2727C150.476 32.7455 152.303 33.5273 153.957 34.6182C155.612 35.6909 156.939 37.1545 157.939 39.0091C158.957 40.8636 159.466 43.1818 159.466 45.9636V74H149.976V68.2455H149.648C149.048 69.4091 148.203 70.5 147.112 71.5182C146.039 72.5182 144.685 73.3273 143.048 73.9455C141.43 74.5455 139.53 74.8455 137.348 74.8455ZM139.912 67.5909C141.894 67.5909 143.612 67.2 145.066 66.4182C146.521 65.6182 147.639 64.5636 148.421 63.2545C149.221 61.9455 149.621 60.5182 149.621 58.9727V54.0364C149.312 54.2909 148.785 54.5273 148.039 54.7455C147.312 54.9636 146.494 55.1545 145.585 55.3182C144.676 55.4818 143.776 55.6273 142.885 55.7545C141.994 55.8818 141.221 55.9909 140.566 56.0818C139.094 56.2818 137.776 56.6091 136.612 57.0636C135.448 57.5182 134.53 58.1545 133.857 58.9727C133.185 59.7727 132.848 60.8091 132.848 62.0818C132.848 63.9 133.512 65.2727 134.839 66.2C136.166 67.1273 137.857 67.5909 139.912 67.5909ZM200.199 43.1818L191.199 44.1636C190.944 43.2545 190.499 42.4 189.862 41.6C189.244 40.8 188.408 40.1545 187.353 39.6636C186.299 39.1727 185.008 38.9273 183.481 38.9273C181.426 38.9273 179.699 39.3727 178.299 40.2636C176.917 41.1545 176.235 42.3091 176.253 43.7273C176.235 44.9455 176.681 45.9364 177.59 46.7C178.517 47.4636 180.044 48.0909 182.172 48.5818L189.317 50.1091C193.281 50.9636 196.226 52.3182 198.153 54.1727C200.099 56.0273 201.081 58.4545 201.099 61.4545C201.081 64.0909 200.308 66.4182 198.781 68.4364C197.272 70.4364 195.172 72 192.481 73.1273C189.79 74.2545 186.699 74.8182 183.208 74.8182C178.081 74.8182 173.953 73.7455 170.826 71.6C167.699 69.4364 165.835 66.4273 165.235 62.5727L174.862 61.6455C175.299 63.5364 176.226 64.9636 177.644 65.9273C179.062 66.8909 180.908 67.3727 183.181 67.3727C185.526 67.3727 187.408 66.8909 188.826 65.9273C190.262 64.9636 190.981 63.7727 190.981 62.3545C190.981 61.1545 190.517 60.1636 189.59 59.3818C188.681 58.6 187.262 58 185.335 57.5818L178.19 56.0818C174.172 55.2455 171.199 53.8364 169.272 51.8545C167.344 49.8545 166.39 47.3273 166.408 44.2727C166.39 41.6909 167.09 39.4545 168.508 37.5636C169.944 35.6545 171.935 34.1818 174.481 33.1455C177.044 32.0909 179.999 31.5636 183.344 31.5636C188.253 31.5636 192.117 32.6091 194.935 34.7C197.772 36.7909 199.526 39.6182 200.199 43.1818ZM213.072 89.7091C211.727 89.7091 210.481 89.6 209.336 89.3818C208.208 89.1818 207.308 88.9455 206.636 88.6727L208.927 80.9818C210.363 81.4 211.645 81.6 212.772 81.5818C213.899 81.5636 214.89 81.2091 215.745 80.5182C216.618 79.8455 217.354 78.7182 217.954 77.1364L218.799 74.8727L203.608 32.1091H214.081L223.736 63.7455H224.172L233.854 32.1091H244.354L227.581 79.0727C226.799 81.2909 225.763 83.1909 224.472 84.7727C223.181 86.3727 221.599 87.5909 219.727 88.4273C217.872 89.2818 215.654 89.7091 213.072 89.7091ZM263.002 74.7364C259.711 74.7364 256.766 73.8909 254.166 72.2C251.566 70.5091 249.511 68.0545 248.002 64.8364C246.493 61.6182 245.739 57.7091 245.739 53.1091C245.739 48.4545 246.502 44.5273 248.029 41.3273C249.575 38.1091 251.657 35.6818 254.275 34.0455C256.893 32.3909 259.811 31.5636 263.029 31.5636C265.484 31.5636 267.502 31.9818 269.084 32.8182C270.666 33.6364 271.92 34.6273 272.848 35.7909C273.775 36.9364 274.493 38.0182 275.002 39.0364H275.411V18.1455H285.311V74H275.602V67.4H275.002C274.493 68.4182 273.757 69.5 272.793 70.6455C271.829 71.7727 270.557 72.7364 268.975 73.5364C267.393 74.3364 265.402 74.7364 263.002 74.7364ZM265.757 66.6364C267.848 66.6364 269.629 66.0727 271.102 64.9455C272.575 63.8 273.693 62.2091 274.457 60.1727C275.22 58.1364 275.602 55.7636 275.602 53.0545C275.602 50.3455 275.22 47.9909 274.457 45.9909C273.711 43.9909 272.602 42.4364 271.129 41.3273C269.675 40.2182 267.884 39.6636 265.757 39.6636C263.557 39.6636 261.72 40.2364 260.248 41.3818C258.775 42.5273 257.666 44.1091 256.92 46.1273C256.175 48.1455 255.802 50.4545 255.802 53.0545C255.802 55.6727 256.175 58.0091 256.92 60.0636C257.684 62.1 258.802 63.7091 260.275 64.8909C261.766 66.0545 263.593 66.6364 265.757 66.6364ZM293.528 74V32.1091H303.4V74H293.528ZM298.491 26.1636C296.928 26.1636 295.582 25.6455 294.455 24.6091C293.328 23.5545 292.764 22.2909 292.764 20.8182C292.764 19.3273 293.328 18.0636 294.455 17.0273C295.582 15.9727 296.928 15.4455 298.491 15.4455C300.073 15.4455 301.419 15.9727 302.528 17.0273C303.655 18.0636 304.219 19.3273 304.219 20.8182C304.219 22.2909 303.655 23.5545 302.528 24.6091C301.419 25.6455 300.073 26.1636 298.491 26.1636ZM344.358 43.1818L335.358 44.1636C335.103 43.2545 334.658 42.4 334.021 41.6C333.403 40.8 332.567 40.1545 331.512 39.6636C330.458 39.1727 329.167 38.9273 327.64 38.9273C325.585 38.9273 323.858 39.3727 322.458 40.2636C321.076 41.1545 320.394 42.3091 320.412 43.7273C320.394 44.9455 320.84 45.9364 321.749 46.7C322.676 47.4636 324.203 48.0909 326.331 48.5818L333.476 50.1091C337.44 50.9636 340.385 52.3182 342.312 54.1727C344.258 56.0273 345.24 58.4545 345.258 61.4545C345.24 64.0909 344.467 66.4182 342.94 68.4364C341.431 70.4364 339.331 72 336.64 73.1273C333.949 74.2545 330.858 74.8182 327.367 74.8182C322.24 74.8182 318.112 73.7455 314.985 71.6C311.858 69.4364 309.994 66.4273 309.394 62.5727L319.021 61.6455C319.458 63.5364 320.385 64.9636 321.803 65.9273C323.221 66.8909 325.067 67.3727 327.34 67.3727C329.685 67.3727 331.567 66.8909 332.985 65.9273C334.421 64.9636 335.14 63.7727 335.14 62.3545C335.14 61.1545 334.676 60.1636 333.749 59.3818C332.84 58.6 331.421 58 329.494 57.5818L322.349 56.0818C318.331 55.2455 315.358 53.8364 313.431 51.8545C311.503 49.8545 310.549 47.3273 310.567 44.2727C310.549 41.6909 311.249 39.4545 312.667 37.5636C314.103 35.6545 316.094 34.1818 318.64 33.1455C321.203 32.0909 324.158 31.5636 327.503 31.5636C332.412 31.5636 336.276 32.6091 339.094 34.7C341.931 36.7909 343.685 39.6182 344.358 43.1818ZM369.367 74.8182C365.186 74.8182 361.595 73.9 358.595 72.0636C355.613 70.2273 353.313 67.6909 351.695 64.4545C350.095 61.2 349.295 57.4545 349.295 53.2182C349.295 48.9636 350.113 45.2091 351.749 41.9545C353.386 38.6818 355.695 36.1364 358.677 34.3182C361.677 32.4818 365.222 31.5636 369.313 31.5636C372.713 31.5636 375.722 32.1909 378.34 33.4455C380.977 34.6818 383.077 36.4364 384.64 38.7091C386.204 40.9636 387.095 43.6 387.313 46.6182H377.877C377.495 44.6 376.586 42.9182 375.149 41.5727C373.731 40.2091 371.831 39.5273 369.449 39.5273C367.431 39.5273 365.658 40.0727 364.131 41.1636C362.604 42.2364 361.413 43.7818 360.558 45.8C359.722 47.8182 359.304 50.2364 359.304 53.0545C359.304 55.9091 359.722 58.3636 360.558 60.4182C361.395 62.4545 362.567 64.0273 364.077 65.1364C365.604 66.2273 367.395 66.7727 369.449 66.7727C370.904 66.7727 372.204 66.5 373.349 65.9545C374.513 65.3909 375.486 64.5818 376.267 63.5273C377.049 62.4727 377.586 61.1909 377.877 59.6818H387.313C387.077 62.6455 386.204 65.2727 384.695 67.5636C383.186 69.8364 381.131 71.6182 378.531 72.9091C375.931 74.1818 372.877 74.8182 369.367 74.8182Z" fill="black"/>
<path d="M263.694 106V89.2H267.533V92H267.708C268.015 91.0302 268.54 90.2828 269.283 89.7578C270.035 89.2255 270.891 88.9594 271.854 88.9594C272.073 88.9594 272.317 88.9703 272.587 88.9922C272.864 89.0068 273.093 89.0323 273.276 89.0687V92.7109C273.108 92.6526 272.842 92.6016 272.477 92.5578C272.12 92.5068 271.774 92.4812 271.438 92.4812C270.716 92.4812 270.067 92.638 269.491 92.9516C268.923 93.2578 268.474 93.6844 268.146 94.2313C267.818 94.7781 267.654 95.4089 267.654 96.1234V106H263.694ZM281.728 106.328C280.043 106.328 278.589 105.978 277.364 105.278C276.146 104.571 275.209 103.572 274.553 102.281C273.897 100.983 273.568 99.4557 273.568 97.6984C273.568 95.9703 273.897 94.4536 274.553 93.1484C275.216 91.8359 276.142 90.8151 277.331 90.0859C278.519 89.3495 279.916 88.9813 281.52 88.9813C282.555 88.9813 283.533 89.149 284.451 89.4844C285.377 89.8125 286.194 90.3229 286.901 91.0156C287.616 91.7083 288.177 92.5906 288.586 93.6625C288.994 94.7271 289.198 95.9958 289.198 97.4687V98.6828H275.428V96.0141H285.403C285.396 95.2557 285.231 94.5812 284.911 93.9906C284.59 93.3927 284.141 92.9224 283.565 92.5797C282.997 92.237 282.333 92.0656 281.575 92.0656C280.765 92.0656 280.054 92.2625 279.442 92.6562C278.829 93.0427 278.352 93.5531 278.009 94.1875C277.674 94.8146 277.502 95.5036 277.495 96.2547V98.5844C277.495 99.5615 277.674 100.4 278.031 101.1C278.388 101.793 278.888 102.325 279.529 102.697C280.171 103.061 280.922 103.244 281.783 103.244C282.359 103.244 282.88 103.164 283.347 103.003C283.813 102.835 284.218 102.591 284.561 102.27C284.903 101.949 285.162 101.552 285.337 101.078L289.034 101.494C288.801 102.471 288.356 103.324 287.7 104.053C287.051 104.775 286.219 105.336 285.206 105.737C284.192 106.131 283.033 106.328 281.728 106.328ZM295.583 96.1562V106H291.624V89.2H295.408V92.0547H295.605C295.991 91.1141 296.608 90.3667 297.453 89.8125C298.307 89.2583 299.36 88.9813 300.614 88.9813C301.774 88.9813 302.784 89.2292 303.644 89.725C304.512 90.2208 305.183 90.9391 305.657 91.8797C306.138 92.8203 306.375 93.9615 306.368 95.3031V106H302.408V95.9156C302.408 94.7927 302.116 93.9141 301.533 93.2797C300.957 92.6453 300.159 92.3281 299.138 92.3281C298.445 92.3281 297.829 92.4812 297.289 92.7875C296.757 93.0865 296.338 93.5203 296.032 94.0891C295.733 94.6578 295.583 95.3469 295.583 96.1562ZM316.906 106.328C315.222 106.328 313.767 105.978 312.542 105.278C311.324 104.571 310.387 103.572 309.731 102.281C309.075 100.983 308.747 99.4557 308.747 97.6984C308.747 95.9703 309.075 94.4536 309.731 93.1484C310.395 91.8359 311.321 90.8151 312.509 90.0859C313.698 89.3495 315.094 88.9813 316.698 88.9813C317.734 88.9813 318.711 89.149 319.629 89.4844C320.555 89.8125 321.372 90.3229 322.079 91.0156C322.794 91.7083 323.355 92.5906 323.764 93.6625C324.172 94.7271 324.376 95.9958 324.376 97.4687V98.6828H310.606V96.0141H320.581C320.574 95.2557 320.41 94.5812 320.089 93.9906C319.768 93.3927 319.32 92.9224 318.744 92.5797C318.175 92.237 317.511 92.0656 316.753 92.0656C315.944 92.0656 315.233 92.2625 314.62 92.6562C314.008 93.0427 313.53 93.5531 313.187 94.1875C312.852 94.8146 312.68 95.5036 312.673 96.2547V98.5844C312.673 99.5615 312.852 100.4 313.209 101.1C313.566 101.793 314.066 102.325 314.708 102.697C315.349 103.061 316.1 103.244 316.961 103.244C317.537 103.244 318.058 103.164 318.525 103.003C318.991 102.835 319.396 102.591 319.739 102.27C320.082 101.949 320.34 101.552 320.515 101.078L324.212 101.494C323.979 102.471 323.534 103.324 322.878 104.053C322.229 104.775 321.398 105.336 320.384 105.737C319.371 106.131 318.211 106.328 316.906 106.328ZM330.179 106L325.432 89.2H329.468L332.421 101.012H332.574L335.593 89.2H339.585L342.604 100.947H342.768L345.677 89.2H349.724L344.966 106H340.843L337.693 94.6469H337.463L334.313 106H330.179ZM356.399 106.339C355.334 106.339 354.376 106.149 353.522 105.77C352.677 105.384 352.006 104.815 351.51 104.064C351.021 103.313 350.777 102.387 350.777 101.286C350.777 100.338 350.952 99.5542 351.302 98.9344C351.652 98.3146 352.13 97.8188 352.735 97.4469C353.34 97.075 354.022 96.7943 354.78 96.6047C355.546 96.4078 356.337 96.2656 357.154 96.1781C358.138 96.076 358.937 95.9849 359.549 95.9047C360.162 95.8172 360.606 95.6859 360.883 95.5109C361.168 95.3286 361.31 95.0479 361.31 94.6687V94.6031C361.31 93.7792 361.066 93.1411 360.577 92.6891C360.089 92.237 359.385 92.0109 358.466 92.0109C357.496 92.0109 356.727 92.2224 356.158 92.6453C355.597 93.0682 355.218 93.5677 355.021 94.1438L351.324 93.6187C351.616 92.5979 352.097 91.7448 352.768 91.0594C353.439 90.3667 354.259 89.849 355.229 89.5063C356.198 89.1563 357.27 88.9813 358.444 88.9813C359.254 88.9813 360.059 89.076 360.862 89.2656C361.664 89.4552 362.396 89.7687 363.06 90.2062C363.723 90.6365 364.256 91.2234 364.657 91.9672C365.065 92.7109 365.269 93.6406 365.269 94.7562V106H361.463V103.692H361.332C361.091 104.159 360.752 104.596 360.315 105.005C359.884 105.406 359.341 105.73 358.685 105.978C358.036 106.219 357.274 106.339 356.399 106.339ZM357.427 103.43C358.222 103.43 358.911 103.273 359.494 102.959C360.078 102.639 360.526 102.216 360.84 101.691C361.16 101.166 361.321 100.593 361.321 99.9734V97.9938C361.197 98.0958 360.985 98.1906 360.687 98.2781C360.395 98.3656 360.067 98.4422 359.702 98.5078C359.338 98.5734 358.977 98.6318 358.619 98.6828C358.262 98.7339 357.952 98.7776 357.69 98.8141C357.099 98.8943 356.57 99.0255 356.104 99.2078C355.637 99.3901 355.269 99.6453 354.999 99.9734C354.729 100.294 354.594 100.71 354.594 101.22C354.594 101.949 354.86 102.5 355.393 102.872C355.925 103.244 356.603 103.43 357.427 103.43ZM372.286 83.6V106H368.327V83.6H372.286ZM388.712 93.6406L385.102 94.0344C385 93.6698 384.821 93.3271 384.566 93.0063C384.318 92.6854 383.983 92.4266 383.56 92.2297C383.137 92.0328 382.619 91.9344 382.007 91.9344C381.183 91.9344 380.49 92.113 379.929 92.4703C379.375 92.8276 379.101 93.2906 379.108 93.8594C379.101 94.3479 379.28 94.7453 379.644 95.0516C380.016 95.3578 380.629 95.6094 381.482 95.8063L384.348 96.4187C385.937 96.7615 387.118 97.3047 387.891 98.0484C388.671 98.7922 389.065 99.7656 389.073 100.969C389.065 102.026 388.755 102.959 388.143 103.769C387.538 104.571 386.695 105.198 385.616 105.65C384.537 106.102 383.298 106.328 381.898 106.328C379.841 106.328 378.186 105.898 376.932 105.038C375.678 104.17 374.93 102.963 374.69 101.417L378.551 101.045C378.726 101.804 379.098 102.376 379.666 102.762C380.235 103.149 380.975 103.342 381.887 103.342C382.827 103.342 383.582 103.149 384.151 102.762C384.727 102.376 385.015 101.898 385.015 101.33C385.015 100.848 384.829 100.451 384.457 100.137C384.092 99.824 383.524 99.5833 382.751 99.4156L379.885 98.8141C378.274 98.4786 377.081 97.9135 376.308 97.1187C375.536 96.3167 375.153 95.3031 375.16 94.0781C375.153 93.0427 375.433 92.1458 376.002 91.3875C376.578 90.6219 377.377 90.0313 378.398 89.6156C379.426 89.1927 380.611 88.9813 381.952 88.9813C383.921 88.9813 385.47 89.4005 386.601 90.2391C387.738 91.0776 388.442 92.2115 388.712 93.6406Z" fill="#ADADAD"/>
<circle cx="35" cy="53" r="35" fill="#ADADAD"/>
<circle cx="35" cy="53" r="21" fill="white"/>
</svg>
